<?xml version="1.0" encoding="utf-8"?>
<!-- Generator: Adobe Illustrator 16.0.0, SVG Export Plug-In . SVG Version: 6.00 Build 0)  -->
<!DOCTYPE svg PUBLIC "-//W3C//DTD SVG 1.1//EN" "http://www.w3.org/Graphics/SVG/1.1/DTD/svg11.dtd">
<svg version="1.1" xmlns="http://www.w3.org/2000/svg" xmlns:xlink="http://www.w3.org/1999/xlink" x="0px" y="0px" width="1000px"
	 height="1000px" viewBox="0 0 1000 1000" enable-background="new 0 0 1000 1000" xml:space="preserve">
<g id="Layer_1" display="none">
	
		<rect x="143.025" y="141.675" display="inline" fill="#FFFFFF" stroke="#000000" stroke-miterlimit="10" width="718.919" height="718.919"/>
	
		<rect x="661.945" y="660.594" display="inline" fill="#FFFFFF" stroke="#000000" stroke-miterlimit="10" width="199.999" height="200"/>
</g>
<g id="Layer_2" display="none">
	
		<rect x="143.025" y="660.594" display="inline" fill="#FFFFFF" stroke="#000000" stroke-miterlimit="10" width="200" height="200"/>
	<rect x="400" y="660.594" display="inline" fill="#FFFFFF" stroke="#000000" stroke-miterlimit="10" width="200" height="200"/>
	
		<rect x="661.945" y="401.135" display="inline" fill="#FFFFFF" stroke="#000000" stroke-miterlimit="10" width="200" height="200"/>
	<rect x="402.484" y="400" display="inline" fill="#FFFFFF" stroke="#000000" stroke-miterlimit="10" width="200" height="200"/>
	
		<rect x="402.484" y="141.675" display="inline" fill="#FFFFFF" stroke="#000000" stroke-miterlimit="10" width="200" height="200"/>
</g>
<g id="Layer_3">
	<circle opacity="0.5" fill="#ED1C24" cx="243.025" cy="760.594" r="100"/>
	<circle opacity="0.5" fill="#FFFFFF" cx="500" cy="760.594" r="100"/>
	<circle opacity="0.5" fill="#007EBE" cx="761.945" cy="760.594" r="100"/>
	<circle opacity="0.5" fill="#FFFFFF" cx="502.484" cy="500" r="100"/>
	<circle opacity="0.5" fill="#007EBE" cx="761.945" cy="501.135" r="100"/>
	<circle opacity="0.5" fill="#FFFFFF" cx="502.484" cy="241.675" r="100"/>
</g>
<g id="Layer_4" display="none">
	
		<rect x="402.484" y="141.675" display="inline" fill="#FFFFFF" stroke="#000000" stroke-miterlimit="10" width="100" height="100"/>
	
		<rect x="502.484" y="241.675" display="inline" fill="#FFFFFF" stroke="#000000" stroke-miterlimit="10" width="100" height="100"/>
	
		<rect x="452.484" y="191.675" display="inline" fill="#FFFFFF" stroke="#000000" stroke-miterlimit="10" width="100" height="100"/>
	<rect x="402.484" y="400" display="inline" fill="#FFFFFF" stroke="#000000" stroke-miterlimit="10" width="100" height="100"/>
	<rect x="502.484" y="500" display="inline" fill="#FFFFFF" stroke="#000000" stroke-miterlimit="10" width="100" height="100"/>
	<rect x="452.484" y="450" display="inline" fill="#FFFFFF" stroke="#000000" stroke-miterlimit="10" width="100" height="100"/>
	
		<rect x="661.945" y="401.135" display="inline" fill="#FFFFFF" stroke="#000000" stroke-miterlimit="10" width="100" height="100"/>
	
		<rect x="761.945" y="501.135" display="inline" fill="#FFFFFF" stroke="#000000" stroke-miterlimit="10" width="100" height="100"/>
	
		<rect x="711.945" y="451.135" display="inline" fill="#FFFFFF" stroke="#000000" stroke-miterlimit="10" width="100" height="100"/>
	
		<rect x="143.025" y="660.594" display="inline" fill="#FFFFFF" stroke="#000000" stroke-miterlimit="10" width="100" height="100"/>
	
		<rect x="243.025" y="760.594" display="inline" fill="#FFFFFF" stroke="#000000" stroke-miterlimit="10" width="100" height="100"/>
	<rect x="400" y="660.594" display="inline" fill="#FFFFFF" stroke="#000000" stroke-miterlimit="10" width="100" height="100"/>
	<rect x="500" y="760.594" display="inline" fill="#FFFFFF" stroke="#000000" stroke-miterlimit="10" width="100" height="100"/>
	
		<rect x="661.945" y="660.594" display="inline" fill="#FFFFFF" stroke="#000000" stroke-miterlimit="10" width="100" height="100"/>
	
		<rect x="761.945" y="760.594" display="inline" fill="#FFFFFF" stroke="#000000" stroke-miterlimit="10" width="99.999" height="100"/>
	
		<rect x="193.025" y="710.594" display="inline" fill="#FFFFFF" stroke="#000000" stroke-miterlimit="10" width="100" height="100"/>
	<rect x="450" y="710.594" display="inline" fill="#FFFFFF" stroke="#000000" stroke-miterlimit="10" width="100" height="100"/>
	
		<rect x="711.945" y="710.594" display="inline" fill="#FFFFFF" stroke="#000000" stroke-miterlimit="10" width="100" height="100"/>
</g>
<g id="Layer_5" display="none">
	<circle display="inline" fill="#FFFFFF" stroke="#000000" stroke-miterlimit="10" cx="502.484" cy="241.675" r="50"/>
	<circle display="inline" fill="#FFFFFF" stroke="#000000" stroke-miterlimit="10" cx="502.484" cy="500" r="50"/>
	<circle display="inline" fill="#FFFFFF" stroke="#000000" stroke-miterlimit="10" cx="761.945" cy="501.135" r="50"/>
	<circle display="inline" fill="#FFFFFF" stroke="#000000" stroke-miterlimit="10" cx="243.025" cy="760.594" r="50"/>
	<circle display="inline" fill="#FFFFFF" stroke="#000000" stroke-miterlimit="10" cx="500" cy="760.594" r="50"/>
	<circle display="inline" fill="#FFFFFF" stroke="#000000" stroke-miterlimit="10" cx="761.945" cy="760.594" r="50"/>
</g>
<g id="Layer_6" display="none">
	
		<rect x="452.484" y="191.675" display="inline" fill="#FFFFFF" stroke="#000000" stroke-miterlimit="10" width="47.516" height="47.516"/>
	
		<rect x="500" y="239.19" display="inline" fill="#FFFFFF" stroke="#000000" stroke-miterlimit="10" width="52.484" height="52.484"/>
	<rect x="476.242" y="215.433" display="inline" fill="#FFFFFF" stroke="#000000" stroke-miterlimit="10" width="50" height="50"/>
	<rect x="452.484" y="450" display="inline" fill="#FFFFFF" stroke="#000000" stroke-miterlimit="10" width="50" height="50"/>
	<rect x="502.484" y="500" display="inline" fill="#FFFFFF" stroke="#000000" stroke-miterlimit="10" width="50" height="50"/>
	<rect x="477.484" y="475" display="inline" fill="#FFFFFF" stroke="#000000" stroke-miterlimit="10" width="50" height="50"/>
	<rect x="711.945" y="451.135" display="inline" fill="#FFFFFF" stroke="#000000" stroke-miterlimit="10" width="50" height="50"/>
	<rect x="761.945" y="501.135" display="inline" fill="#FFFFFF" stroke="#000000" stroke-miterlimit="10" width="50" height="50"/>
	<rect x="736.945" y="476.135" display="inline" fill="#FFFFFF" stroke="#000000" stroke-miterlimit="10" width="50" height="50"/>
	<rect x="193.025" y="710.594" display="inline" fill="#FFFFFF" stroke="#000000" stroke-miterlimit="10" width="50" height="50"/>
	<rect x="243.025" y="760.594" display="inline" fill="#FFFFFF" stroke="#000000" stroke-miterlimit="10" width="50" height="50"/>
	<rect x="218.025" y="735.594" display="inline" fill="#FFFFFF" stroke="#000000" stroke-miterlimit="10" width="50" height="50"/>
	<rect x="450" y="710.594" display="inline" fill="#FFFFFF" stroke="#000000" stroke-miterlimit="10" width="50" height="50"/>
	<rect x="500" y="760.594" display="inline" fill="#FFFFFF" stroke="#000000" stroke-miterlimit="10" width="50" height="50"/>
	<rect x="475" y="735.594" display="inline" fill="#FFFFFF" stroke="#000000" stroke-miterlimit="10" width="50" height="50"/>
	<rect x="711.945" y="710.594" display="inline" fill="#FFFFFF" stroke="#000000" stroke-miterlimit="10" width="50" height="50"/>
	<rect x="761.945" y="760.594" display="inline" fill="#FFFFFF" stroke="#000000" stroke-miterlimit="10" width="50" height="50"/>
	<rect x="736.945" y="735.594" display="inline" fill="#FFFFFF" stroke="#000000" stroke-miterlimit="10" width="50" height="50"/>
</g>
<g id="Layer_7">
	<circle opacity="0.5" fill="#8B5E3C" cx="761.945" cy="760.594" r="25"/>
	<circle opacity="0.5" fill="#8B5E3C" cx="501.242" cy="240.433" r="25"/>
	<circle opacity="0.5" fill="#8B5E3C" cx="500" cy="760.594" r="25"/>
	<circle opacity="0.5" fill="#8B5E3C" cx="502.484" cy="500" r="25"/>
	<circle opacity="0.5" fill="#8B5E3C" cx="761.945" cy="501.135" r="25"/>
	<circle opacity="0.5" fill="#8B5E3C" cx="243.025" cy="760.594" r="25"/>
</g>
</svg>
